<?xml version="1.0" encoding="utf-8" standalone="no"?>
<!DOCTYPE svg PUBLIC "-//W3C//DTD SVG 1.1//EN"
  "http://www.w3.org/Graphics/SVG/1.1/DTD/svg11.dtd">
<svg xmlns:xlink="http://www.w3.org/1999/xlink" width="805.722831pt" height="613.711033pt" viewBox="0 0 805.722831 613.711033" xmlns="http://www.w3.org/2000/svg" version="1.1">
 <metadata>
  <rdf:RDF xmlns:dc="http://purl.org/dc/elements/1.1/" xmlns:cc="http://creativecommons.org/ns#" xmlns:rdf="http://www.w3.org/1999/02/22-rdf-syntax-ns#">
   <cc:Work>
    <dc:type rdf:resource="http://purl.org/dc/dcmitype/StillImage"/>
    <dc:date>2026-03-15T18:49:43.227082</dc:date>
    <dc:format>image/svg+xml</dc:format>
    <dc:creator>
     <cc:Agent>
      <dc:title>Matplotlib v3.8.4, https://matplotlib.org/</dc:title>
     </cc:Agent>
    </dc:creator>
   </cc:Work>
  </rdf:RDF>
 </metadata>
 <defs>
  <style type="text/css">*{stroke-linejoin: round; stroke-linecap: butt}</style>
 </defs>
 <g id="figure_1">
  <g id="patch_1">
   <path d="M 0 613.711033 
L 805.722831 613.711033 
L 805.722831 0 
L 0 0 
z
" style="fill: #ffffff"/>
  </g>
  <g id="axes_1">
   <g id="patch_2">
    <path d="M 23.522831 578.561043 
L 798.522831 578.561043 
L 798.522831 551.405871 
L 23.522831 551.405871 
z
" clip-path="url(#p0dbad3b77a)" style="fill-opacity: 0.05098"/>
   </g>
   <g id="patch_3">
    <path d="M 23.522831 544.617078 
L 798.522831 544.617078 
L 798.522831 517.461906 
L 23.522831 517.461906 
L 23.522831 544.617078 
z
" clip-path="url(#p0dbad3b77a)" style="fill: none"/>
   </g>
   <g id="patch_4">
    <path d="M 23.522831 510.673112 
L 798.522831 510.673112 
L 798.522831 483.51794 
L 23.522831 483.51794 
z
" clip-path="url(#p0dbad3b77a)" style="fill-opacity: 0.05098"/>
   </g>
   <g id="patch_5">
    <path d="M 23.522831 476.729147 
L 798.522831 476.729147 
L 798.522831 449.573974 
L 23.522831 449.573974 
L 23.522831 476.729147 
z
" clip-path="url(#p0dbad3b77a)" style="fill: none"/>
   </g>
   <g id="patch_6">
    <path d="M 23.522831 442.785181 
L 798.522831 442.785181 
L 798.522831 415.630009 
L 23.522831 415.630009 
z
" clip-path="url(#p0dbad3b77a)" style="fill-opacity: 0.05098"/>
   </g>
   <g id="matplotlib.axis_1"/>
   <g id="matplotlib.axis_2">
    <g id="ytick_1"/>
    <g id="ytick_2"/>
    <g id="ytick_3"/>
    <g id="ytick_4"/>
    <g id="ytick_5"/>
   </g>
  </g>
  <g id="axes_2">
   <g id="matplotlib.axis_3">
    <g id="ytick_6">
     <g id="line2d_1"/>
     <g id="text_1">
      <!-- NetMHC -->
      <g transform="translate(200.808487 569.993926) scale(0.14 -0.14)">
       <defs>
        <path id="ArialMT-4e" d="M 488 0 
L 488 4581 
L 1109 4581 
L 3516 984 
L 3516 4581 
L 4097 4581 
L 4097 0 
L 3475 0 
L 1069 3600 
L 1069 0 
L 488 0 
z
" transform="scale(0.015625)"/>
        <path id="ArialMT-65" d="M 2694 1069 
L 3275 997 
Q 3138 488 2766 206 
Q 2394 -75 1816 -75 
Q 1088 -75 661 373 
Q 234 822 234 1631 
Q 234 2469 665 2931 
Q 1097 3394 1784 3394 
Q 2450 3394 2872 2941 
Q 3294 2488 3294 1666 
Q 3294 1616 3291 1516 
L 816 1516 
Q 847 969 1125 678 
Q 1403 388 1819 388 
Q 2128 388 2347 550 
Q 2566 713 2694 1069 
z
M 847 1978 
L 2700 1978 
Q 2663 2397 2488 2606 
Q 2219 2931 1791 2931 
Q 1403 2931 1139 2672 
Q 875 2413 847 1978 
z
" transform="scale(0.015625)"/>
        <path id="ArialMT-74" d="M 1650 503 
L 1731 6 
Q 1494 -44 1306 -44 
Q 1000 -44 831 53 
Q 663 150 594 308 
Q 525 466 525 972 
L 525 2881 
L 113 2881 
L 113 3319 
L 525 3319 
L 525 4141 
L 1084 4478 
L 1084 3319 
L 1650 3319 
L 1650 2881 
L 1084 2881 
L 1084 941 
Q 1084 700 1114 631 
Q 1144 563 1211 522 
Q 1278 481 1403 481 
Q 1497 481 1650 503 
z
" transform="scale(0.015625)"/>
        <path id="ArialMT-4d" d="M 475 0 
L 475 4581 
L 1388 4581 
L 2472 1338 
Q 2622 884 2691 659 
Q 2769 909 2934 1394 
L 4031 4581 
L 4847 4581 
L 4847 0 
L 4263 0 
L 4263 3834 
L 2931 0 
L 2384 0 
L 1059 3900 
L 1059 0 
L 475 0 
z
" transform="scale(0.015625)"/>
        <path id="ArialMT-48" d="M 513 0 
L 513 4581 
L 1119 4581 
L 1119 2700 
L 3500 2700 
L 3500 4581 
L 4106 4581 
L 4106 0 
L 3500 0 
L 3500 2159 
L 1119 2159 
L 1119 0 
L 513 0 
z
" transform="scale(0.015625)"/>
        <path id="ArialMT-43" d="M 3763 1606 
L 4369 1453 
Q 4178 706 3683 314 
Q 3188 -78 2472 -78 
Q 1731 -78 1267 223 
Q 803 525 561 1097 
Q 319 1669 319 2325 
Q 319 3041 592 3573 
Q 866 4106 1370 4382 
Q 1875 4659 2481 4659 
Q 3169 4659 3637 4309 
Q 4106 3959 4291 3325 
L 3694 3184 
Q 3534 3684 3231 3912 
Q 2928 4141 2469 4141 
Q 1941 4141 1586 3887 
Q 1231 3634 1087 3207 
Q 944 2781 944 2328 
Q 944 1744 1114 1308 
Q 1284 872 1643 656 
Q 2003 441 2422 441 
Q 2931 441 3284 734 
Q 3638 1028 3763 1606 
z
" transform="scale(0.015625)"/>
       </defs>
       <use xlink:href="#ArialMT-4e"/>
       <use xlink:href="#ArialMT-65" x="72.216797"/>
       <use xlink:href="#ArialMT-74" x="127.832031"/>
       <use xlink:href="#ArialMT-4d" x="155.615234"/>
       <use xlink:href="#ArialMT-48" x="238.916016"/>
       <use xlink:href="#ArialMT-43" x="311.132812"/>
      </g>
     </g>
    </g>
    <g id="ytick_7">
     <g id="line2d_2"/>
     <g id="text_2">
      <!-- CNN Large -->
      <g transform="translate(184.45255 536.135273) scale(0.14 -0.14)">
       <defs>
        <path id="ArialMT-20" transform="scale(0.015625)"/>
        <path id="ArialMT-4c" d="M 469 0 
L 469 4581 
L 1075 4581 
L 1075 541 
L 3331 541 
L 3331 0 
L 469 0 
z
" transform="scale(0.015625)"/>
        <path id="ArialMT-61" d="M 2588 409 
Q 2275 144 1986 34 
Q 1697 -75 1366 -75 
Q 819 -75 525 192 
Q 231 459 231 875 
Q 231 1119 342 1320 
Q 453 1522 633 1644 
Q 813 1766 1038 1828 
Q 1203 1872 1538 1913 
Q 2219 1994 2541 2106 
Q 2544 2222 2544 2253 
Q 2544 2597 2384 2738 
Q 2169 2928 1744 2928 
Q 1347 2928 1158 2789 
Q 969 2650 878 2297 
L 328 2372 
Q 403 2725 575 2942 
Q 747 3159 1072 3276 
Q 1397 3394 1825 3394 
Q 2250 3394 2515 3294 
Q 2781 3194 2906 3042 
Q 3031 2891 3081 2659 
Q 3109 2516 3109 2141 
L 3109 1391 
Q 3109 606 3145 398 
Q 3181 191 3288 0 
L 2700 0 
Q 2613 175 2588 409 
z
M 2541 1666 
Q 2234 1541 1622 1453 
Q 1275 1403 1131 1340 
Q 988 1278 909 1158 
Q 831 1038 831 891 
Q 831 666 1001 516 
Q 1172 366 1500 366 
Q 1825 366 2078 508 
Q 2331 650 2450 897 
Q 2541 1088 2541 1459 
L 2541 1666 
z
" transform="scale(0.015625)"/>
        <path id="ArialMT-72" d="M 416 0 
L 416 3319 
L 922 3319 
L 922 2816 
Q 1116 3169 1280 3281 
Q 1444 3394 1641 3394 
Q 1925 3394 2219 3213 
L 2025 2691 
Q 1819 2813 1613 2813 
Q 1428 2813 1281 2702 
Q 1134 2591 1072 2394 
Q 978 2094 978 1738 
L 978 0 
L 416 0 
z
" transform="scale(0.015625)"/>
        <path id="ArialMT-67" d="M 319 -275 
L 866 -356 
Q 900 -609 1056 -725 
Q 1266 -881 1628 -881 
Q 2019 -881 2231 -725 
Q 2444 -569 2519 -288 
Q 2563 -116 2559 434 
Q 2191 0 1641 0 
Q 956 0 581 494 
Q 206 988 206 1678 
Q 206 2153 378 2554 
Q 550 2956 876 3175 
Q 1203 3394 1644 3394 
Q 2231 3394 2613 2919 
L 2613 3319 
L 3131 3319 
L 3131 450 
Q 3131 -325 2973 -648 
Q 2816 -972 2473 -1159 
Q 2131 -1347 1631 -1347 
Q 1038 -1347 672 -1080 
Q 306 -813 319 -275 
z
M 784 1719 
Q 784 1066 1043 766 
Q 1303 466 1694 466 
Q 2081 466 2343 764 
Q 2606 1063 2606 1700 
Q 2606 2309 2336 2618 
Q 2066 2928 1684 2928 
Q 1309 2928 1046 2623 
Q 784 2319 784 1719 
z
" transform="scale(0.015625)"/>
       </defs>
       <use xlink:href="#ArialMT-43"/>
       <use xlink:href="#ArialMT-4e" x="72.216797"/>
       <use xlink:href="#ArialMT-4e" x="144.433594"/>
       <use xlink:href="#ArialMT-20" x="216.650391"/>
       <use xlink:href="#ArialMT-4c" x="244.433594"/>
       <use xlink:href="#ArialMT-61" x="300.048828"/>
       <use xlink:href="#ArialMT-72" x="355.664062"/>
       <use xlink:href="#ArialMT-67" x="388.964844"/>
       <use xlink:href="#ArialMT-65" x="444.580078"/>
      </g>
     </g>
    </g>
    <g id="ytick_8">
     <g id="line2d_3"/>
     <g id="text_3">
      <!-- Random Forest -->
      <g transform="translate(158.0013 502.105995) scale(0.14 -0.14)">
       <defs>
        <path id="ArialMT-52" d="M 503 0 
L 503 4581 
L 2534 4581 
Q 3147 4581 3465 4457 
Q 3784 4334 3975 4021 
Q 4166 3709 4166 3331 
Q 4166 2844 3850 2509 
Q 3534 2175 2875 2084 
Q 3116 1969 3241 1856 
Q 3506 1613 3744 1247 
L 4541 0 
L 3778 0 
L 3172 953 
Q 2906 1366 2734 1584 
Q 2563 1803 2427 1890 
Q 2291 1978 2150 2013 
Q 2047 2034 1813 2034 
L 1109 2034 
L 1109 0 
L 503 0 
z
M 1109 2559 
L 2413 2559 
Q 2828 2559 3062 2645 
Q 3297 2731 3419 2920 
Q 3541 3109 3541 3331 
Q 3541 3656 3305 3865 
Q 3069 4075 2559 4075 
L 1109 4075 
L 1109 2559 
z
" transform="scale(0.015625)"/>
        <path id="ArialMT-6e" d="M 422 0 
L 422 3319 
L 928 3319 
L 928 2847 
Q 1294 3394 1984 3394 
Q 2284 3394 2536 3286 
Q 2788 3178 2913 3003 
Q 3038 2828 3088 2588 
Q 3119 2431 3119 2041 
L 3119 0 
L 2556 0 
L 2556 2019 
Q 2556 2363 2490 2533 
Q 2425 2703 2258 2804 
Q 2091 2906 1866 2906 
Q 1506 2906 1245 2678 
Q 984 2450 984 1813 
L 984 0 
L 422 0 
z
" transform="scale(0.015625)"/>
        <path id="ArialMT-64" d="M 2575 0 
L 2575 419 
Q 2259 -75 1647 -75 
Q 1250 -75 917 144 
Q 584 363 401 755 
Q 219 1147 219 1656 
Q 219 2153 384 2558 
Q 550 2963 881 3178 
Q 1213 3394 1622 3394 
Q 1922 3394 2156 3267 
Q 2391 3141 2538 2938 
L 2538 4581 
L 3097 4581 
L 3097 0 
L 2575 0 
z
M 797 1656 
Q 797 1019 1065 703 
Q 1334 388 1700 388 
Q 2069 388 2326 689 
Q 2584 991 2584 1609 
Q 2584 2291 2321 2609 
Q 2059 2928 1675 2928 
Q 1300 2928 1048 2622 
Q 797 2316 797 1656 
z
" transform="scale(0.015625)"/>
        <path id="ArialMT-6f" d="M 213 1659 
Q 213 2581 725 3025 
Q 1153 3394 1769 3394 
Q 2453 3394 2887 2945 
Q 3322 2497 3322 1706 
Q 3322 1066 3130 698 
Q 2938 331 2570 128 
Q 2203 -75 1769 -75 
Q 1072 -75 642 372 
Q 213 819 213 1659 
z
M 791 1659 
Q 791 1022 1069 705 
Q 1347 388 1769 388 
Q 2188 388 2466 706 
Q 2744 1025 2744 1678 
Q 2744 2294 2464 2611 
Q 2184 2928 1769 2928 
Q 1347 2928 1069 2612 
Q 791 2297 791 1659 
z
" transform="scale(0.015625)"/>
        <path id="ArialMT-6d" d="M 422 0 
L 422 3319 
L 925 3319 
L 925 2853 
Q 1081 3097 1340 3245 
Q 1600 3394 1931 3394 
Q 2300 3394 2536 3241 
Q 2772 3088 2869 2813 
Q 3263 3394 3894 3394 
Q 4388 3394 4653 3120 
Q 4919 2847 4919 2278 
L 4919 0 
L 4359 0 
L 4359 2091 
Q 4359 2428 4304 2576 
Q 4250 2725 4106 2815 
Q 3963 2906 3769 2906 
Q 3419 2906 3187 2673 
Q 2956 2441 2956 1928 
L 2956 0 
L 2394 0 
L 2394 2156 
Q 2394 2531 2256 2718 
Q 2119 2906 1806 2906 
Q 1569 2906 1367 2781 
Q 1166 2656 1075 2415 
Q 984 2175 984 1722 
L 984 0 
L 422 0 
z
" transform="scale(0.015625)"/>
        <path id="ArialMT-46" d="M 525 0 
L 525 4581 
L 3616 4581 
L 3616 4041 
L 1131 4041 
L 1131 2622 
L 3281 2622 
L 3281 2081 
L 1131 2081 
L 1131 0 
L 525 0 
z
" transform="scale(0.015625)"/>
        <path id="ArialMT-73" d="M 197 991 
L 753 1078 
Q 800 744 1014 566 
Q 1228 388 1613 388 
Q 2000 388 2187 545 
Q 2375 703 2375 916 
Q 2375 1106 2209 1216 
Q 2094 1291 1634 1406 
Q 1016 1563 777 1677 
Q 538 1791 414 1992 
Q 291 2194 291 2438 
Q 291 2659 392 2848 
Q 494 3038 669 3163 
Q 800 3259 1026 3326 
Q 1253 3394 1513 3394 
Q 1903 3394 2198 3281 
Q 2494 3169 2634 2976 
Q 2775 2784 2828 2463 
L 2278 2388 
Q 2241 2644 2061 2787 
Q 1881 2931 1553 2931 
Q 1166 2931 1000 2803 
Q 834 2675 834 2503 
Q 834 2394 903 2306 
Q 972 2216 1119 2156 
Q 1203 2125 1616 2013 
Q 2213 1853 2448 1751 
Q 2684 1650 2818 1456 
Q 2953 1263 2953 975 
Q 2953 694 2789 445 
Q 2625 197 2315 61 
Q 2006 -75 1616 -75 
Q 969 -75 630 194 
Q 291 463 197 991 
z
" transform="scale(0.015625)"/>
       </defs>
       <use xlink:href="#ArialMT-52"/>
       <use xlink:href="#ArialMT-61" x="72.216797"/>
       <use xlink:href="#ArialMT-6e" x="127.832031"/>
       <use xlink:href="#ArialMT-64" x="183.447266"/>
       <use xlink:href="#ArialMT-6f" x="239.0625"/>
       <use xlink:href="#ArialMT-6d" x="294.677734"/>
       <use xlink:href="#ArialMT-20" x="377.978516"/>
       <use xlink:href="#ArialMT-46" x="405.761719"/>
       <use xlink:href="#ArialMT-6f" x="466.845703"/>
       <use xlink:href="#ArialMT-72" x="522.460938"/>
       <use xlink:href="#ArialMT-65" x="555.761719"/>
       <use xlink:href="#ArialMT-73" x="611.376953"/>
       <use xlink:href="#ArialMT-74" x="661.376953"/>
      </g>
     </g>
    </g>
    <g id="ytick_9">
     <g id="line2d_4"/>
     <g id="text_4">
      <!-- Quantum CNN -->
      <g transform="translate(162.6738 468.162029) scale(0.14 -0.14)">
       <defs>
        <path id="ArialMT-51" d="M 3966 491 
Q 4388 200 4744 66 
L 4566 -356 
Q 4072 -178 3581 206 
Q 3072 -78 2456 -78 
Q 1834 -78 1328 222 
Q 822 522 548 1065 
Q 275 1609 275 2291 
Q 275 2969 550 3525 
Q 825 4081 1333 4372 
Q 1841 4663 2469 4663 
Q 3103 4663 3612 4361 
Q 4122 4059 4389 3517 
Q 4656 2975 4656 2294 
Q 4656 1728 4484 1276 
Q 4313 825 3966 491 
z
M 2631 1266 
Q 3156 1119 3497 828 
Q 4031 1316 4031 2294 
Q 4031 2850 3842 3265 
Q 3653 3681 3289 3911 
Q 2925 4141 2472 4141 
Q 1794 4141 1347 3677 
Q 900 3213 900 2291 
Q 900 1397 1342 919 
Q 1784 441 2472 441 
Q 2797 441 3084 563 
Q 2800 747 2484 825 
L 2631 1266 
z
" transform="scale(0.015625)"/>
        <path id="ArialMT-75" d="M 2597 0 
L 2597 488 
Q 2209 -75 1544 -75 
Q 1250 -75 995 37 
Q 741 150 617 320 
Q 494 491 444 738 
Q 409 903 409 1263 
L 409 3319 
L 972 3319 
L 972 1478 
Q 972 1038 1006 884 
Q 1059 663 1231 536 
Q 1403 409 1656 409 
Q 1909 409 2131 539 
Q 2353 669 2445 892 
Q 2538 1116 2538 1541 
L 2538 3319 
L 3100 3319 
L 3100 0 
L 2597 0 
z
" transform="scale(0.015625)"/>
       </defs>
       <use xlink:href="#ArialMT-51"/>
       <use xlink:href="#ArialMT-75" x="77.783203"/>
       <use xlink:href="#ArialMT-61" x="133.398438"/>
       <use xlink:href="#ArialMT-6e" x="189.013672"/>
       <use xlink:href="#ArialMT-74" x="244.628906"/>
       <use xlink:href="#ArialMT-75" x="272.412109"/>
       <use xlink:href="#ArialMT-6d" x="328.027344"/>
       <use xlink:href="#ArialMT-20" x="411.328125"/>
       <use xlink:href="#ArialMT-43" x="439.111328"/>
       <use xlink:href="#ArialMT-4e" x="511.328125"/>
       <use xlink:href="#ArialMT-4e" x="583.544922"/>
      </g>
     </g>
    </g>
    <g id="ytick_10">
     <g id="line2d_5"/>
     <g id="text_5">
      <!-- CNN Limited -->
      <g transform="translate(175.127237 434.218064) scale(0.14 -0.14)">
       <defs>
        <path id="ArialMT-69" d="M 425 3934 
L 425 4581 
L 988 4581 
L 988 3934 
L 425 3934 
z
M 425 0 
L 425 3319 
L 988 3319 
L 988 0 
L 425 0 
z
" transform="scale(0.015625)"/>
       </defs>
       <use xlink:href="#ArialMT-43"/>
       <use xlink:href="#ArialMT-4e" x="72.216797"/>
       <use xlink:href="#ArialMT-4e" x="144.433594"/>
       <use xlink:href="#ArialMT-20" x="216.650391"/>
       <use xlink:href="#ArialMT-4c" x="244.433594"/>
       <use xlink:href="#ArialMT-69" x="300.048828"/>
       <use xlink:href="#ArialMT-6d" x="322.265625"/>
       <use xlink:href="#ArialMT-69" x="405.566406"/>
       <use xlink:href="#ArialMT-74" x="427.783203"/>
       <use xlink:href="#ArialMT-65" x="455.566406"/>
       <use xlink:href="#ArialMT-64" x="511.181641"/>
      </g>
     </g>
    </g>
   </g>
   <g id="LineCollection_1">
    <path d="M 277.281834 564.983457 
L 277.281834 429.207595 
" clip-path="url(#p5f7d29b517)" style="fill: none; stroke: #000000; stroke-width: 2"/>
    <path d="M 315.892279 564.983457 
L 315.892279 463.151561 
" clip-path="url(#p5f7d29b517)" style="fill: none; stroke: #000000; stroke-width: 2"/>
    <path d="M 354.502723 564.983457 
L 354.502723 429.207595 
" clip-path="url(#p5f7d29b517)" style="fill: none; stroke: #000000; stroke-width: 2"/>
    <path d="M 393.113167 564.983457 
L 393.113167 429.207595 
" clip-path="url(#p5f7d29b517)" style="fill: none; stroke: #000000; stroke-width: 2"/>
    <path d="M 431.723611 564.983457 
L 431.723611 531.039492 
" clip-path="url(#p5f7d29b517)" style="fill: none; stroke: #000000; stroke-width: 2"/>
    <path d="M 470.334055 531.039492 
L 470.334055 429.207595 
" clip-path="url(#p5f7d29b517)" style="fill: none; stroke: #000000; stroke-width: 2"/>
    <path d="M 508.9445 463.151561 
L 508.9445 429.207595 
" clip-path="url(#p5f7d29b517)" style="fill: none; stroke: #000000; stroke-width: 2"/>
    <path d="M 586.165388 564.983457 
L 586.165388 463.151561 
" clip-path="url(#p5f7d29b517)" style="fill: none; stroke: #000000; stroke-width: 2"/>
    <path d="M 624.775832 497.095526 
L 624.775832 429.207595 
" clip-path="url(#p5f7d29b517)" style="fill: none; stroke: #000000; stroke-width: 2"/>
    <path d="M 663.386276 497.095526 
L 663.386276 463.151561 
" clip-path="url(#p5f7d29b517)" style="fill: none; stroke: #000000; stroke-width: 2"/>
    <path d="M 701.99672 564.983457 
L 701.99672 463.151561 
" clip-path="url(#p5f7d29b517)" style="fill: none; stroke: #000000; stroke-width: 2"/>
    <path d="M 740.607165 564.983457 
L 740.607165 564.983457 
" clip-path="url(#p5f7d29b517)" style="fill: none; stroke: #000000; stroke-width: 2"/>
    <path d="M 779.217609 564.983457 
L 779.217609 497.095526 
" clip-path="url(#p5f7d29b517)" style="fill: none; stroke: #000000; stroke-width: 2"/>
   </g>
   <g id="PathCollection_1">
    <defs>
     <path id="C0_0_d9539087d8" d="M 0 8.75 
C 2.320527 8.75 4.546324 7.828045 6.187184 6.187184 
C 7.828045 4.546324 8.75 2.320527 8.75 -0 
C 8.75 -2.320527 7.828045 -4.546324 6.187184 -6.187184 
C 4.546324 -7.828045 2.320527 -8.75 0 -8.75 
C -2.320527 -8.75 -4.546324 -7.828045 -6.187184 -6.187184 
C -7.828045 -4.546324 -8.75 -2.320527 -8.75 0 
C -8.75 2.320527 -7.828045 4.546324 -6.187184 6.187184 
C -4.546324 7.828045 -2.320527 8.75 0 8.75 
z
"/>
    </defs>
    <g clip-path="url(#p5f7d29b517)">
     <use xlink:href="#C0_0_d9539087d8" x="277.281834" y="564.983457" style="stroke: #000000"/>
    </g>
    <g clip-path="url(#p5f7d29b517)">
     <use xlink:href="#C0_0_d9539087d8" x="277.281834" y="531.039492" style="stroke: #000000"/>
    </g>
    <g clip-path="url(#p5f7d29b517)">
     <use xlink:href="#C0_0_d9539087d8" x="277.281834" y="497.095526" style="stroke: #000000"/>
    </g>
    <g clip-path="url(#p5f7d29b517)">
     <use xlink:href="#C0_0_d9539087d8" x="277.281834" y="463.151561" style="stroke: #000000"/>
    </g>
    <g clip-path="url(#p5f7d29b517)">
     <use xlink:href="#C0_0_d9539087d8" x="277.281834" y="429.207595" style="stroke: #000000"/>
    </g>
    <g clip-path="url(#p5f7d29b517)">
     <use xlink:href="#C0_0_d9539087d8" x="315.892279" y="564.983457" style="stroke: #000000"/>
    </g>
    <g clip-path="url(#p5f7d29b517)">
     <use xlink:href="#C0_0_d9539087d8" x="315.892279" y="531.039492" style="stroke: #000000"/>
    </g>
    <g clip-path="url(#p5f7d29b517)">
     <use xlink:href="#C0_0_d9539087d8" x="315.892279" y="497.095526" style="stroke: #000000"/>
    </g>
    <g clip-path="url(#p5f7d29b517)">
     <use xlink:href="#C0_0_d9539087d8" x="315.892279" y="463.151561" style="stroke: #000000"/>
    </g>
    <g clip-path="url(#p5f7d29b517)">
     <use xlink:href="#C0_0_d9539087d8" x="315.892279" y="429.207595" style="fill-opacity: 0.180392"/>
    </g>
    <g clip-path="url(#p5f7d29b517)">
     <use xlink:href="#C0_0_d9539087d8" x="354.502723" y="564.983457" style="stroke: #000000"/>
    </g>
    <g clip-path="url(#p5f7d29b517)">
     <use xlink:href="#C0_0_d9539087d8" x="354.502723" y="531.039492" style="stroke: #000000"/>
    </g>
    <g clip-path="url(#p5f7d29b517)">
     <use xlink:href="#C0_0_d9539087d8" x="354.502723" y="497.095526" style="stroke: #000000"/>
    </g>
    <g clip-path="url(#p5f7d29b517)">
     <use xlink:href="#C0_0_d9539087d8" x="354.502723" y="463.151561" style="fill-opacity: 0.180392"/>
    </g>
    <g clip-path="url(#p5f7d29b517)">
     <use xlink:href="#C0_0_d9539087d8" x="354.502723" y="429.207595" style="stroke: #000000"/>
    </g>
    <g clip-path="url(#p5f7d29b517)">
     <use xlink:href="#C0_0_d9539087d8" x="393.113167" y="564.983457" style="stroke: #000000"/>
    </g>
    <g clip-path="url(#p5f7d29b517)">
     <use xlink:href="#C0_0_d9539087d8" x="393.113167" y="531.039492" style="stroke: #000000"/>
    </g>
    <g clip-path="url(#p5f7d29b517)">
     <use xlink:href="#C0_0_d9539087d8" x="393.113167" y="497.095526" style="fill-opacity: 0.180392"/>
    </g>
    <g clip-path="url(#p5f7d29b517)">
     <use xlink:href="#C0_0_d9539087d8" x="393.113167" y="463.151561" style="fill-opacity: 0.180392"/>
    </g>
    <g clip-path="url(#p5f7d29b517)">
     <use xlink:href="#C0_0_d9539087d8" x="393.113167" y="429.207595" style="stroke: #000000"/>
    </g>
    <g clip-path="url(#p5f7d29b517)">
     <use xlink:href="#C0_0_d9539087d8" x="431.723611" y="564.983457" style="stroke: #000000"/>
    </g>
    <g clip-path="url(#p5f7d29b517)">
     <use xlink:href="#C0_0_d9539087d8" x="431.723611" y="531.039492" style="stroke: #000000"/>
    </g>
    <g clip-path="url(#p5f7d29b517)">
     <use xlink:href="#C0_0_d9539087d8" x="431.723611" y="497.095526" style="fill-opacity: 0.180392"/>
    </g>
    <g clip-path="url(#p5f7d29b517)">
     <use xlink:href="#C0_0_d9539087d8" x="431.723611" y="463.151561" style="fill-opacity: 0.180392"/>
    </g>
    <g clip-path="url(#p5f7d29b517)">
     <use xlink:href="#C0_0_d9539087d8" x="431.723611" y="429.207595" style="fill-opacity: 0.180392"/>
    </g>
    <g clip-path="url(#p5f7d29b517)">
     <use xlink:href="#C0_0_d9539087d8" x="470.334055" y="564.983457" style="fill-opacity: 0.180392"/>
    </g>
    <g clip-path="url(#p5f7d29b517)">
     <use xlink:href="#C0_0_d9539087d8" x="470.334055" y="531.039492" style="stroke: #000000"/>
    </g>
    <g clip-path="url(#p5f7d29b517)">
     <use xlink:href="#C0_0_d9539087d8" x="470.334055" y="497.095526" style="stroke: #000000"/>
    </g>
    <g clip-path="url(#p5f7d29b517)">
     <use xlink:href="#C0_0_d9539087d8" x="470.334055" y="463.151561" style="stroke: #000000"/>
    </g>
    <g clip-path="url(#p5f7d29b517)">
     <use xlink:href="#C0_0_d9539087d8" x="470.334055" y="429.207595" style="stroke: #000000"/>
    </g>
    <g clip-path="url(#p5f7d29b517)">
     <use xlink:href="#C0_0_d9539087d8" x="508.9445" y="564.983457" style="fill-opacity: 0.180392"/>
    </g>
    <g clip-path="url(#p5f7d29b517)">
     <use xlink:href="#C0_0_d9539087d8" x="508.9445" y="531.039492" style="fill-opacity: 0.180392"/>
    </g>
    <g clip-path="url(#p5f7d29b517)">
     <use xlink:href="#C0_0_d9539087d8" x="508.9445" y="497.095526" style="fill-opacity: 0.180392"/>
    </g>
    <g clip-path="url(#p5f7d29b517)">
     <use xlink:href="#C0_0_d9539087d8" x="508.9445" y="463.151561" style="stroke: #000000"/>
    </g>
    <g clip-path="url(#p5f7d29b517)">
     <use xlink:href="#C0_0_d9539087d8" x="508.9445" y="429.207595" style="stroke: #000000"/>
    </g>
    <g clip-path="url(#p5f7d29b517)">
     <use xlink:href="#C0_0_d9539087d8" x="547.554944" y="564.983457" style="fill-opacity: 0.180392"/>
    </g>
    <g clip-path="url(#p5f7d29b517)">
     <use xlink:href="#C0_0_d9539087d8" x="547.554944" y="531.039492" style="fill-opacity: 0.180392"/>
    </g>
    <g clip-path="url(#p5f7d29b517)">
     <use xlink:href="#C0_0_d9539087d8" x="547.554944" y="497.095526" style="fill-opacity: 0.180392"/>
    </g>
    <g clip-path="url(#p5f7d29b517)">
     <use xlink:href="#C0_0_d9539087d8" x="547.554944" y="463.151561" style="fill-opacity: 0.180392"/>
    </g>
    <g clip-path="url(#p5f7d29b517)">
     <use xlink:href="#C0_0_d9539087d8" x="547.554944" y="429.207595" style="fill-opacity: 0.180392"/>
    </g>
    <g clip-path="url(#p5f7d29b517)">
     <use xlink:href="#C0_0_d9539087d8" x="586.165388" y="564.983457" style="stroke: #000000"/>
    </g>
    <g clip-path="url(#p5f7d29b517)">
     <use xlink:href="#C0_0_d9539087d8" x="586.165388" y="531.039492" style="fill-opacity: 0.180392"/>
    </g>
    <g clip-path="url(#p5f7d29b517)">
     <use xlink:href="#C0_0_d9539087d8" x="586.165388" y="497.095526" style="fill-opacity: 0.180392"/>
    </g>
    <g clip-path="url(#p5f7d29b517)">
     <use xlink:href="#C0_0_d9539087d8" x="586.165388" y="463.151561" style="stroke: #000000"/>
    </g>
    <g clip-path="url(#p5f7d29b517)">
     <use xlink:href="#C0_0_d9539087d8" x="586.165388" y="429.207595" style="fill-opacity: 0.180392"/>
    </g>
    <g clip-path="url(#p5f7d29b517)">
     <use xlink:href="#C0_0_d9539087d8" x="624.775832" y="564.983457" style="fill-opacity: 0.180392"/>
    </g>
    <g clip-path="url(#p5f7d29b517)">
     <use xlink:href="#C0_0_d9539087d8" x="624.775832" y="531.039492" style="fill-opacity: 0.180392"/>
    </g>
    <g clip-path="url(#p5f7d29b517)">
     <use xlink:href="#C0_0_d9539087d8" x="624.775832" y="497.095526" style="stroke: #000000"/>
    </g>
    <g clip-path="url(#p5f7d29b517)">
     <use xlink:href="#C0_0_d9539087d8" x="624.775832" y="463.151561" style="stroke: #000000"/>
    </g>
    <g clip-path="url(#p5f7d29b517)">
     <use xlink:href="#C0_0_d9539087d8" x="624.775832" y="429.207595" style="stroke: #000000"/>
    </g>
    <g clip-path="url(#p5f7d29b517)">
     <use xlink:href="#C0_0_d9539087d8" x="663.386276" y="564.983457" style="fill-opacity: 0.180392"/>
    </g>
    <g clip-path="url(#p5f7d29b517)">
     <use xlink:href="#C0_0_d9539087d8" x="663.386276" y="531.039492" style="fill-opacity: 0.180392"/>
    </g>
    <g clip-path="url(#p5f7d29b517)">
     <use xlink:href="#C0_0_d9539087d8" x="663.386276" y="497.095526" style="stroke: #000000"/>
    </g>
    <g clip-path="url(#p5f7d29b517)">
     <use xlink:href="#C0_0_d9539087d8" x="663.386276" y="463.151561" style="stroke: #000000"/>
    </g>
    <g clip-path="url(#p5f7d29b517)">
     <use xlink:href="#C0_0_d9539087d8" x="663.386276" y="429.207595" style="fill-opacity: 0.180392"/>
    </g>
    <g clip-path="url(#p5f7d29b517)">
     <use xlink:href="#C0_0_d9539087d8" x="701.99672" y="564.983457" style="stroke: #000000"/>
    </g>
    <g clip-path="url(#p5f7d29b517)">
     <use xlink:href="#C0_0_d9539087d8" x="701.99672" y="531.039492" style="stroke: #000000"/>
    </g>
    <g clip-path="url(#p5f7d29b517)">
     <use xlink:href="#C0_0_d9539087d8" x="701.99672" y="497.095526" style="fill-opacity: 0.180392"/>
    </g>
    <g clip-path="url(#p5f7d29b517)">
     <use xlink:href="#C0_0_d9539087d8" x="701.99672" y="463.151561" style="stroke: #000000"/>
    </g>
    <g clip-path="url(#p5f7d29b517)">
     <use xlink:href="#C0_0_d9539087d8" x="701.99672" y="429.207595" style="fill-opacity: 0.180392"/>
    </g>
    <g clip-path="url(#p5f7d29b517)">
     <use xlink:href="#C0_0_d9539087d8" x="740.607165" y="564.983457" style="stroke: #000000"/>
    </g>
    <g clip-path="url(#p5f7d29b517)">
     <use xlink:href="#C0_0_d9539087d8" x="740.607165" y="531.039492" style="fill-opacity: 0.180392"/>
    </g>
    <g clip-path="url(#p5f7d29b517)">
     <use xlink:href="#C0_0_d9539087d8" x="740.607165" y="497.095526" style="fill-opacity: 0.180392"/>
    </g>
    <g clip-path="url(#p5f7d29b517)">
     <use xlink:href="#C0_0_d9539087d8" x="740.607165" y="463.151561" style="fill-opacity: 0.180392"/>
    </g>
    <g clip-path="url(#p5f7d29b517)">
     <use xlink:href="#C0_0_d9539087d8" x="740.607165" y="429.207595" style="fill-opacity: 0.180392"/>
    </g>
    <g clip-path="url(#p5f7d29b517)">
     <use xlink:href="#C0_0_d9539087d8" x="779.217609" y="564.983457" style="stroke: #000000"/>
    </g>
    <g clip-path="url(#p5f7d29b517)">
     <use xlink:href="#C0_0_d9539087d8" x="779.217609" y="531.039492" style="stroke: #000000"/>
    </g>
    <g clip-path="url(#p5f7d29b517)">
     <use xlink:href="#C0_0_d9539087d8" x="779.217609" y="497.095526" style="stroke: #000000"/>
    </g>
    <g clip-path="url(#p5f7d29b517)">
     <use xlink:href="#C0_0_d9539087d8" x="779.217609" y="463.151561" style="fill-opacity: 0.180392"/>
    </g>
    <g clip-path="url(#p5f7d29b517)">
     <use xlink:href="#C0_0_d9539087d8" x="779.217609" y="429.207595" style="fill-opacity: 0.180392"/>
    </g>
   </g>
  </g>
  <g id="axes_3">
   <g id="patch_7">
    <path d="M 95.161486 573.469449 
L 23.522831 573.469449 
L 23.522831 556.497466 
L 95.161486 556.497466 
z
" clip-path="url(#p8342b57afa)" style="stroke: #000000; stroke-linejoin: miter"/>
   </g>
   <g id="patch_8">
    <path d="M 95.161486 539.525483 
L 25.114801 539.525483 
L 25.114801 522.5535 
L 95.161486 522.5535 
z
" clip-path="url(#p8342b57afa)" style="stroke: #000000; stroke-linejoin: miter"/>
   </g>
   <g id="patch_9">
    <path d="M 95.161486 505.581518 
L 28.298741 505.581518 
L 28.298741 488.609535 
L 95.161486 488.609535 
z
" clip-path="url(#p8342b57afa)" style="stroke: #000000; stroke-linejoin: miter"/>
   </g>
   <g id="patch_10">
    <path d="M 95.161486 471.637552 
L 31.482681 471.637552 
L 31.482681 454.665569 
L 95.161486 454.665569 
z
" clip-path="url(#p8342b57afa)" style="stroke: #000000; stroke-linejoin: miter"/>
   </g>
   <g id="patch_11">
    <path d="M 95.161486 437.693587 
L 42.626472 437.693587 
L 42.626472 420.721604 
L 95.161486 420.721604 
z
" clip-path="url(#p8342b57afa)" style="stroke: #000000; stroke-linejoin: miter"/>
   </g>
   <g id="matplotlib.axis_4">
    <g id="xtick_1">
     <g id="line2d_6">
      <path d="M 95.161486 586.707595 
L 95.161486 407.483457 
" clip-path="url(#p8342b57afa)" style="fill: none; stroke: #b0b0b0; stroke-width: 0.8; stroke-linecap: square"/>
     </g>
     <g id="line2d_7">
      <defs>
       <path id="m21f877dc3f" d="M 0 0 
L 0 3.5 
" style="stroke: #000000; stroke-width: 0.8"/>
      </defs>
      <g>
       <use xlink:href="#m21f877dc3f" x="95.161486" y="586.707595" style="stroke: #000000; stroke-width: 0.8"/>
      </g>
     </g>
     <g id="text_6">
      <!-- 0 -->
      <g transform="translate(91.26883 603.728533) scale(0.14 -0.14)">
       <defs>
        <path id="ArialMT-30" d="M 266 2259 
Q 266 3072 433 3567 
Q 600 4063 929 4331 
Q 1259 4600 1759 4600 
Q 2128 4600 2406 4451 
Q 2684 4303 2865 4023 
Q 3047 3744 3150 3342 
Q 3253 2941 3253 2259 
Q 3253 1453 3087 958 
Q 2922 463 2592 192 
Q 2263 -78 1759 -78 
Q 1097 -78 719 397 
Q 266 969 266 2259 
z
M 844 2259 
Q 844 1131 1108 757 
Q 1372 384 1759 384 
Q 2147 384 2411 759 
Q 2675 1134 2675 2259 
Q 2675 3391 2411 3762 
Q 2147 4134 1753 4134 
Q 1366 4134 1134 3806 
Q 844 3388 844 2259 
z
" transform="scale(0.015625)"/>
       </defs>
       <use xlink:href="#ArialMT-30"/>
      </g>
     </g>
    </g>
    <g id="xtick_2">
     <g id="line2d_8">
      <path d="M 55.362233 586.707595 
L 55.362233 407.483457 
" clip-path="url(#p8342b57afa)" style="fill: none; stroke: #b0b0b0; stroke-width: 0.8; stroke-linecap: square"/>
     </g>
     <g id="line2d_9">
      <g>
       <use xlink:href="#m21f877dc3f" x="55.362233" y="586.707595" style="stroke: #000000; stroke-width: 0.8"/>
      </g>
     </g>
     <g id="text_7">
      <!-- 25 -->
      <g transform="translate(47.576921 603.728533) scale(0.14 -0.14)">
       <defs>
        <path id="ArialMT-32" d="M 3222 541 
L 3222 0 
L 194 0 
Q 188 203 259 391 
Q 375 700 629 1000 
Q 884 1300 1366 1694 
Q 2113 2306 2375 2664 
Q 2638 3022 2638 3341 
Q 2638 3675 2398 3904 
Q 2159 4134 1775 4134 
Q 1369 4134 1125 3890 
Q 881 3647 878 3216 
L 300 3275 
Q 359 3922 746 4261 
Q 1134 4600 1788 4600 
Q 2447 4600 2831 4234 
Q 3216 3869 3216 3328 
Q 3216 3053 3103 2787 
Q 2991 2522 2730 2228 
Q 2469 1934 1863 1422 
Q 1356 997 1212 845 
Q 1069 694 975 541 
L 3222 541 
z
" transform="scale(0.015625)"/>
        <path id="ArialMT-35" d="M 266 1200 
L 856 1250 
Q 922 819 1161 601 
Q 1400 384 1738 384 
Q 2144 384 2425 690 
Q 2706 997 2706 1503 
Q 2706 1984 2436 2262 
Q 2166 2541 1728 2541 
Q 1456 2541 1237 2417 
Q 1019 2294 894 2097 
L 366 2166 
L 809 4519 
L 3088 4519 
L 3088 3981 
L 1259 3981 
L 1013 2750 
Q 1425 3038 1878 3038 
Q 2478 3038 2890 2622 
Q 3303 2206 3303 1553 
Q 3303 931 2941 478 
Q 2500 -78 1738 -78 
Q 1113 -78 717 272 
Q 322 622 266 1200 
z
" transform="scale(0.015625)"/>
       </defs>
       <use xlink:href="#ArialMT-32"/>
       <use xlink:href="#ArialMT-35" x="55.615234"/>
      </g>
     </g>
    </g>
   </g>
   <g id="patch_12">
    <path d="M 23.522831 586.707595 
L 95.161486 586.707595 
" style="fill: none; stroke: #000000; stroke-width: 0.8; stroke-linejoin: miter; stroke-linecap: square"/>
   </g>
   <g id="text_8">
    <!-- 45 -->
    <g transform="translate(7.2 568.602676) scale(0.14 -0.14)">
     <defs>
      <path id="ArialMT-34" d="M 2069 0 
L 2069 1097 
L 81 1097 
L 81 1613 
L 2172 4581 
L 2631 4581 
L 2631 1613 
L 3250 1613 
L 3250 1097 
L 2631 1097 
L 2631 0 
L 2069 0 
z
M 2069 1613 
L 2069 3678 
L 634 1613 
L 2069 1613 
z
" transform="scale(0.015625)"/>
     </defs>
     <use xlink:href="#ArialMT-34"/>
     <use xlink:href="#ArialMT-35" x="55.615234"/>
    </g>
   </g>
   <g id="text_9">
    <!-- 44 -->
    <g transform="translate(8.79197 534.65871) scale(0.14 -0.14)">
     <use xlink:href="#ArialMT-34"/>
     <use xlink:href="#ArialMT-34" x="55.615234"/>
    </g>
   </g>
   <g id="text_10">
    <!-- 42 -->
    <g transform="translate(11.97591 500.714745) scale(0.14 -0.14)">
     <use xlink:href="#ArialMT-34"/>
     <use xlink:href="#ArialMT-32" x="55.615234"/>
    </g>
   </g>
   <g id="text_11">
    <!-- 40 -->
    <g transform="translate(15.159851 466.770779) scale(0.14 -0.14)">
     <use xlink:href="#ArialMT-34"/>
     <use xlink:href="#ArialMT-30" x="55.615234"/>
    </g>
   </g>
   <g id="text_12">
    <!-- 33 -->
    <g transform="translate(26.303641 432.826814) scale(0.14 -0.14)">
     <defs>
      <path id="ArialMT-33" d="M 269 1209 
L 831 1284 
Q 928 806 1161 595 
Q 1394 384 1728 384 
Q 2125 384 2398 659 
Q 2672 934 2672 1341 
Q 2672 1728 2419 1979 
Q 2166 2231 1775 2231 
Q 1616 2231 1378 2169 
L 1441 2663 
Q 1497 2656 1531 2656 
Q 1891 2656 2178 2843 
Q 2466 3031 2466 3422 
Q 2466 3731 2256 3934 
Q 2047 4138 1716 4138 
Q 1388 4138 1169 3931 
Q 950 3725 888 3313 
L 325 3413 
Q 428 3978 793 4289 
Q 1159 4600 1703 4600 
Q 2078 4600 2393 4439 
Q 2709 4278 2876 4000 
Q 3044 3722 3044 3409 
Q 3044 3113 2884 2869 
Q 2725 2625 2413 2481 
Q 2819 2388 3044 2092 
Q 3269 1797 3269 1353 
Q 3269 753 2831 336 
Q 2394 -81 1725 -81 
Q 1122 -81 723 278 
Q 325 638 269 1209 
z
" transform="scale(0.015625)"/>
     </defs>
     <use xlink:href="#ArialMT-33"/>
     <use xlink:href="#ArialMT-33" x="55.615234"/>
    </g>
   </g>
  </g>
  <g id="axes_4">
   <g id="patch_13">
    <path d="M 257.976612 387.569664 
L 798.522831 387.569664 
L 798.522831 9.207595 
L 257.976612 9.207595 
z
" style="fill: #ffffff"/>
   </g>
   <g id="matplotlib.axis_5">
    <g id="ytick_11">
     <g id="line2d_10">
      <path d="M 257.976612 387.569664 
L 798.522831 387.569664 
" clip-path="url(#p012d479620)" style="fill: none; stroke: #b0b0b0; stroke-width: 0.8; stroke-linecap: square"/>
     </g>
     <g id="line2d_11">
      <defs>
       <path id="mf7ed97c8ac" d="M 0 0 
L -3.5 0 
" style="stroke: #000000; stroke-width: 0.8"/>
      </defs>
      <g>
       <use xlink:href="#mf7ed97c8ac" x="257.976612" y="387.569664" style="stroke: #000000; stroke-width: 0.8"/>
      </g>
     </g>
     <g id="text_13">
      <!-- 0 -->
      <g transform="translate(243.1913 392.580133) scale(0.14 -0.14)">
       <use xlink:href="#ArialMT-30"/>
      </g>
     </g>
    </g>
    <g id="ytick_12">
     <g id="line2d_12">
      <path d="M 257.976612 312.497825 
L 798.522831 312.497825 
" clip-path="url(#p012d479620)" style="fill: none; stroke: #b0b0b0; stroke-width: 0.8; stroke-linecap: square"/>
     </g>
     <g id="line2d_13">
      <g>
       <use xlink:href="#mf7ed97c8ac" x="257.976612" y="312.497825" style="stroke: #000000; stroke-width: 0.8"/>
      </g>
     </g>
     <g id="text_14">
      <!-- 5 -->
      <g transform="translate(243.1913 317.508294) scale(0.14 -0.14)">
       <use xlink:href="#ArialMT-35"/>
      </g>
     </g>
    </g>
    <g id="ytick_13">
     <g id="line2d_14">
      <path d="M 257.976612 237.425986 
L 798.522831 237.425986 
" clip-path="url(#p012d479620)" style="fill: none; stroke: #b0b0b0; stroke-width: 0.8; stroke-linecap: square"/>
     </g>
     <g id="line2d_15">
      <g>
       <use xlink:href="#mf7ed97c8ac" x="257.976612" y="237.425986" style="stroke: #000000; stroke-width: 0.8"/>
      </g>
     </g>
     <g id="text_15">
      <!-- 10 -->
      <g transform="translate(235.405987 242.436455) scale(0.14 -0.14)">
       <defs>
        <path id="ArialMT-31" d="M 2384 0 
L 1822 0 
L 1822 3584 
Q 1619 3391 1289 3197 
Q 959 3003 697 2906 
L 697 3450 
Q 1169 3672 1522 3987 
Q 1875 4303 2022 4600 
L 2384 4600 
L 2384 0 
z
" transform="scale(0.015625)"/>
       </defs>
       <use xlink:href="#ArialMT-31"/>
       <use xlink:href="#ArialMT-30" x="55.615234"/>
      </g>
     </g>
    </g>
    <g id="ytick_14">
     <g id="line2d_16">
      <path d="M 257.976612 162.354147 
L 798.522831 162.354147 
" clip-path="url(#p012d479620)" style="fill: none; stroke: #b0b0b0; stroke-width: 0.8; stroke-linecap: square"/>
     </g>
     <g id="line2d_17">
      <g>
       <use xlink:href="#mf7ed97c8ac" x="257.976612" y="162.354147" style="stroke: #000000; stroke-width: 0.8"/>
      </g>
     </g>
     <g id="text_16">
      <!-- 15 -->
      <g transform="translate(235.405987 167.364616) scale(0.14 -0.14)">
       <use xlink:href="#ArialMT-31"/>
       <use xlink:href="#ArialMT-35" x="55.615234"/>
      </g>
     </g>
    </g>
    <g id="ytick_15">
     <g id="line2d_18">
      <path d="M 257.976612 87.282308 
L 798.522831 87.282308 
" clip-path="url(#p012d479620)" style="fill: none; stroke: #b0b0b0; stroke-width: 0.8; stroke-linecap: square"/>
     </g>
     <g id="line2d_19">
      <g>
       <use xlink:href="#mf7ed97c8ac" x="257.976612" y="87.282308" style="stroke: #000000; stroke-width: 0.8"/>
      </g>
     </g>
     <g id="text_17">
      <!-- 20 -->
      <g transform="translate(235.405987 92.292777) scale(0.14 -0.14)">
       <use xlink:href="#ArialMT-32"/>
       <use xlink:href="#ArialMT-30" x="55.615234"/>
      </g>
     </g>
    </g>
    <g id="ytick_16">
     <g id="line2d_20">
      <path d="M 257.976612 12.210469 
L 798.522831 12.210469 
" clip-path="url(#p012d479620)" style="fill: none; stroke: #b0b0b0; stroke-width: 0.8; stroke-linecap: square"/>
     </g>
     <g id="line2d_21">
      <g>
       <use xlink:href="#mf7ed97c8ac" x="257.976612" y="12.210469" style="stroke: #000000; stroke-width: 0.8"/>
      </g>
     </g>
     <g id="text_18">
      <!-- 25 -->
      <g transform="translate(235.405987 17.220937) scale(0.14 -0.14)">
       <use xlink:href="#ArialMT-32"/>
       <use xlink:href="#ArialMT-35" x="55.615234"/>
      </g>
     </g>
    </g>
    <g id="text_19">
     <!-- Intersection size -->
     <g transform="translate(228.623487 248.964723) rotate(-90) scale(0.14 -0.14)">
      <defs>
       <path id="ArialMT-49" d="M 597 0 
L 597 4581 
L 1203 4581 
L 1203 0 
L 597 0 
z
" transform="scale(0.015625)"/>
       <path id="ArialMT-63" d="M 2588 1216 
L 3141 1144 
Q 3050 572 2676 248 
Q 2303 -75 1759 -75 
Q 1078 -75 664 370 
Q 250 816 250 1647 
Q 250 2184 428 2587 
Q 606 2991 970 3192 
Q 1334 3394 1763 3394 
Q 2303 3394 2647 3120 
Q 2991 2847 3088 2344 
L 2541 2259 
Q 2463 2594 2264 2762 
Q 2066 2931 1784 2931 
Q 1359 2931 1093 2626 
Q 828 2322 828 1663 
Q 828 994 1084 691 
Q 1341 388 1753 388 
Q 2084 388 2306 591 
Q 2528 794 2588 1216 
z
" transform="scale(0.015625)"/>
       <path id="ArialMT-7a" d="M 125 0 
L 125 456 
L 2238 2881 
Q 1878 2863 1603 2863 
L 250 2863 
L 250 3319 
L 2963 3319 
L 2963 2947 
L 1166 841 
L 819 456 
Q 1197 484 1528 484 
L 3063 484 
L 3063 0 
L 125 0 
z
" transform="scale(0.015625)"/>
      </defs>
      <use xlink:href="#ArialMT-49"/>
      <use xlink:href="#ArialMT-6e" x="27.783203"/>
      <use xlink:href="#ArialMT-74" x="83.398438"/>
      <use xlink:href="#ArialMT-65" x="111.181641"/>
      <use xlink:href="#ArialMT-72" x="166.796875"/>
      <use xlink:href="#ArialMT-73" x="200.097656"/>
      <use xlink:href="#ArialMT-65" x="250.097656"/>
      <use xlink:href="#ArialMT-63" x="305.712891"/>
      <use xlink:href="#ArialMT-74" x="355.712891"/>
      <use xlink:href="#ArialMT-69" x="383.496094"/>
      <use xlink:href="#ArialMT-6f" x="405.712891"/>
      <use xlink:href="#ArialMT-6e" x="461.328125"/>
      <use xlink:href="#ArialMT-20" x="516.943359"/>
      <use xlink:href="#ArialMT-73" x="544.726562"/>
      <use xlink:href="#ArialMT-69" x="594.726562"/>
      <use xlink:href="#ArialMT-7a" x="616.943359"/>
      <use xlink:href="#ArialMT-65" x="666.943359"/>
     </g>
    </g>
   </g>
   <g id="patch_14">
    <path d="M 257.976612 387.569664 
L 257.976612 9.207595 
" style="fill: none; stroke: #000000; stroke-width: 0.8; stroke-linejoin: miter; stroke-linecap: square"/>
   </g>
   <g id="text_20">
    <!-- 24 -->
    <g transform="translate(269.496522 20.658716) scale(0.14 -0.14)">
     <use xlink:href="#ArialMT-32"/>
     <use xlink:href="#ArialMT-34" x="55.615234"/>
    </g>
   </g>
   <g id="text_21">
    <!-- 10 -->
    <g transform="translate(308.106966 230.859865) scale(0.14 -0.14)">
     <use xlink:href="#ArialMT-31"/>
     <use xlink:href="#ArialMT-30" x="55.615234"/>
    </g>
   </g>
   <g id="text_22">
    <!-- 4 -->
    <g transform="translate(350.610067 320.946072) scale(0.14 -0.14)">
     <use xlink:href="#ArialMT-34"/>
    </g>
   </g>
   <g id="text_23">
    <!-- 2 -->
    <g transform="translate(389.220511 350.974808) scale(0.14 -0.14)">
     <use xlink:href="#ArialMT-32"/>
    </g>
   </g>
   <g id="text_24">
    <!-- 1 -->
    <g transform="translate(427.830955 365.989176) scale(0.14 -0.14)">
     <use xlink:href="#ArialMT-31"/>
    </g>
   </g>
   <g id="text_25">
    <!-- 1 -->
    <g transform="translate(466.441399 365.989176) scale(0.14 -0.14)">
     <use xlink:href="#ArialMT-31"/>
    </g>
   </g>
   <g id="text_26">
    <!-- 1 -->
    <g transform="translate(505.051843 365.989176) scale(0.14 -0.14)">
     <use xlink:href="#ArialMT-31"/>
    </g>
   </g>
   <g id="text_27">
    <!-- 1 -->
    <g transform="translate(543.662287 365.989176) scale(0.14 -0.14)">
     <use xlink:href="#ArialMT-31"/>
    </g>
   </g>
   <g id="text_28">
    <!-- 1 -->
    <g transform="translate(582.272732 365.989176) scale(0.14 -0.14)">
     <use xlink:href="#ArialMT-31"/>
    </g>
   </g>
   <g id="text_29">
    <!-- 1 -->
    <g transform="translate(620.883176 365.989176) scale(0.14 -0.14)">
     <use xlink:href="#ArialMT-31"/>
    </g>
   </g>
   <g id="text_30">
    <!-- 1 -->
    <g transform="translate(659.49362 365.989176) scale(0.14 -0.14)">
     <use xlink:href="#ArialMT-31"/>
    </g>
   </g>
   <g id="text_31">
    <!-- 1 -->
    <g transform="translate(698.104064 365.989176) scale(0.14 -0.14)">
     <use xlink:href="#ArialMT-31"/>
    </g>
   </g>
   <g id="text_32">
    <!-- 1 -->
    <g transform="translate(736.714508 365.989176) scale(0.14 -0.14)">
     <use xlink:href="#ArialMT-31"/>
    </g>
   </g>
   <g id="text_33">
    <!-- 1 -->
    <g transform="translate(775.324953 365.989176) scale(0.14 -0.14)">
     <use xlink:href="#ArialMT-31"/>
    </g>
   </g>
   <g id="patch_15">
    <path d="M 267.629223 387.569664 
L 286.934446 387.569664 
L 286.934446 27.224837 
L 267.629223 27.224837 
z
" clip-path="url(#p012d479620)" style="stroke: #000000; stroke-linejoin: miter"/>
   </g>
   <g id="patch_16">
    <path d="M 306.239668 387.569664 
L 325.54489 387.569664 
L 325.54489 237.425986 
L 306.239668 237.425986 
z
" clip-path="url(#p012d479620)" style="stroke: #000000; stroke-linejoin: miter"/>
   </g>
   <g id="patch_17">
    <path d="M 344.850112 387.569664 
L 364.155334 387.569664 
L 364.155334 327.512193 
L 344.850112 327.512193 
z
" clip-path="url(#p012d479620)" style="stroke: #000000; stroke-linejoin: miter"/>
   </g>
   <g id="patch_18">
    <path d="M 383.460556 387.569664 
L 402.765778 387.569664 
L 402.765778 357.540929 
L 383.460556 357.540929 
z
" clip-path="url(#p012d479620)" style="stroke: #000000; stroke-linejoin: miter"/>
   </g>
   <g id="patch_19">
    <path d="M 422.071 387.569664 
L 441.376222 387.569664 
L 441.376222 372.555296 
L 422.071 372.555296 
z
" clip-path="url(#p012d479620)" style="stroke: #000000; stroke-linejoin: miter"/>
   </g>
   <g id="patch_20">
    <path d="M 460.681444 387.569664 
L 479.986666 387.569664 
L 479.986666 372.555296 
L 460.681444 372.555296 
z
" clip-path="url(#p012d479620)" style="stroke: #000000; stroke-linejoin: miter"/>
   </g>
   <g id="patch_21">
    <path d="M 499.291889 387.569664 
L 518.597111 387.569664 
L 518.597111 372.555296 
L 499.291889 372.555296 
z
" clip-path="url(#p012d479620)" style="stroke: #000000; stroke-linejoin: miter"/>
   </g>
   <g id="patch_22">
    <path d="M 537.902333 387.569664 
L 557.207555 387.569664 
L 557.207555 372.555296 
L 537.902333 372.555296 
z
" clip-path="url(#p012d479620)" style="stroke: #000000; stroke-linejoin: miter"/>
   </g>
   <g id="patch_23">
    <path d="M 576.512777 387.569664 
L 595.817999 387.569664 
L 595.817999 372.555296 
L 576.512777 372.555296 
z
" clip-path="url(#p012d479620)" style="stroke: #000000; stroke-linejoin: miter"/>
   </g>
   <g id="patch_24">
    <path d="M 615.123221 387.569664 
L 634.428443 387.569664 
L 634.428443 372.555296 
L 615.123221 372.555296 
z
" clip-path="url(#p012d479620)" style="stroke: #000000; stroke-linejoin: miter"/>
   </g>
   <g id="patch_25">
    <path d="M 653.733665 387.569664 
L 673.038887 387.569664 
L 673.038887 372.555296 
L 653.733665 372.555296 
z
" clip-path="url(#p012d479620)" style="stroke: #000000; stroke-linejoin: miter"/>
   </g>
   <g id="patch_26">
    <path d="M 692.344109 387.569664 
L 711.649331 387.569664 
L 711.649331 372.555296 
L 692.344109 372.555296 
z
" clip-path="url(#p012d479620)" style="stroke: #000000; stroke-linejoin: miter"/>
   </g>
   <g id="patch_27">
    <path d="M 730.954554 387.569664 
L 750.259776 387.569664 
L 750.259776 372.555296 
L 730.954554 372.555296 
z
" clip-path="url(#p012d479620)" style="stroke: #000000; stroke-linejoin: miter"/>
   </g>
   <g id="patch_28">
    <path d="M 769.564998 387.569664 
L 788.87022 387.569664 
L 788.87022 372.555296 
L 769.564998 372.555296 
z
" clip-path="url(#p012d479620)" style="stroke: #000000; stroke-linejoin: miter"/>
   </g>
  </g>
 </g>
 <defs>
  <clipPath id="p0dbad3b77a">
   <rect x="23.522831" y="407.483457" width="775" height="179.224138"/>
  </clipPath>
  <clipPath id="p5f7d29b517">
   <rect x="257.976612" y="407.483457" width="540.546218" height="179.224138"/>
  </clipPath>
  <clipPath id="p8342b57afa">
   <rect x="23.522831" y="407.483457" width="71.638655" height="179.224138"/>
  </clipPath>
  <clipPath id="p012d479620">
   <rect x="257.976612" y="9.207595" width="540.546218" height="378.362069"/>
  </clipPath>
 </defs>
</svg>
